<svg width="23" height="23" viewBox="0 0 23 23" fill="none" xmlns="http://www.w3.org/2000/svg">
<path d="M14.4708 10.973C14.8678 10.973 15.1896 11.2947 15.1896 11.6917C15.1896 12.0887 14.8678 12.4105 14.4708 12.4105H9.19999C8.80304 12.4105 8.48124 12.0887 8.48124 11.6917C8.48124 11.2947 8.80304 10.973 9.19999 10.973H14.4708Z" fill="white"/>
<path fill-rule="evenodd" clip-rule="evenodd" d="M4.40054 14.6666C2.24633 9.37897 6.13631 3.59375 11.8459 3.59375H12.1539C16.4239 3.59375 19.8854 7.05526 19.8854 11.3252C19.8854 16.0794 16.0314 19.9333 11.2773 19.9333H3.78288C3.47788 19.9333 3.20609 19.7408 3.10487 19.4531C3.00364 19.1654 3.09502 18.8452 3.33282 18.6542L5.22217 17.1369C5.30478 17.0705 5.334 16.9578 5.29403 16.8597L4.40054 14.6666ZM11.8459 5.03125C7.1572 5.03125 3.96277 9.78205 5.73179 14.1242L6.62528 16.3173C6.90512 17.0042 6.70056 17.7933 6.12228 18.2577L5.82572 18.4958H11.2773C15.2375 18.4958 18.4479 15.2854 18.4479 11.3252C18.4479 7.84917 15.63 5.03125 12.1539 5.03125H11.8459Z" fill="white"/>
</svg>
