<svg width="18" height="18" viewBox="0 0 18 18" fill="none" xmlns="http://www.w3.org/2000/svg">
<path fill-rule="evenodd" clip-rule="evenodd" d="M11.1863 12.1586C8.7569 14.1044 5.20076 13.9512 2.94871 11.6992C0.532337 9.2828 0.532337 5.36509 2.94871 2.94872C5.36507 0.532352 9.28278 0.532352 11.6992 2.94872C13.9512 5.20077 14.1043 8.75691 12.1586 11.1863L16.8846 15.9123C17.1531 16.1808 17.1531 16.6161 16.8846 16.8846C16.6161 17.1531 16.1808 17.1531 15.9123 16.8846L11.1863 12.1586ZM3.92098 10.7269C2.04158 8.8475 2.04158 5.80039 3.92098 3.92099C5.80037 2.04159 8.84748 2.04159 10.7269 3.92099C12.6049 5.79901 12.6063 8.84302 10.731 10.7228C10.7296 10.7241 10.7282 10.7255 10.7269 10.7269C10.7255 10.7283 10.7241 10.7296 10.7227 10.731C8.84302 12.6063 5.799 12.6049 3.92098 10.7269Z" fill="#FD815A" stroke="white" stroke-width="0.5" stroke-linecap="round"/>
</svg>
