<svg width="45" height="35" viewBox="0 0 45 35" fill="none" xmlns="http://www.w3.org/2000/svg">
<path d="M12.1377 22.8623C12.0189 22.7485 11.8787 22.6592 11.7253 22.5998C11.4209 22.4747 11.0796 22.4747 10.7753 22.5998C10.6218 22.6592 10.4817 22.7485 10.3628 22.8623C10.249 22.9811 10.1598 23.1213 10.1003 23.2747C10.0046 23.5024 9.97841 23.7533 10.0251 23.9957C10.0718 24.2382 10.1893 24.4614 10.3628 24.6372C10.4843 24.7476 10.6238 24.8364 10.7753 24.8997C10.9249 24.9658 11.0867 25 11.2503 25C11.4139 25 11.5756 24.9658 11.7253 24.8997C11.8767 24.8364 12.0163 24.7476 12.1377 24.6372C12.3112 24.4614 12.4287 24.2382 12.4754 23.9957C12.5221 23.7533 12.496 23.5024 12.4002 23.2747C12.3408 23.1213 12.2515 22.9811 12.1377 22.8623ZM16.2502 12.5H33.7498C34.0813 12.5 34.3993 12.3683 34.6337 12.1338C34.8681 11.8994 34.9998 11.5815 34.9998 11.25C34.9998 10.9185 34.8681 10.6005 34.6337 10.3661C34.3993 10.1317 34.0813 10 33.7498 10H16.2502C15.9187 10 15.6007 10.1317 15.3663 10.3661C15.1319 10.6005 15.0002 10.9185 15.0002 11.25C15.0002 11.5815 15.1319 11.8994 15.3663 12.1338C15.6007 12.3683 15.9187 12.5 16.2502 12.5ZM12.1377 16.6124C11.962 16.4389 11.7388 16.3214 11.4963 16.2747C11.2538 16.228 11.0029 16.2542 10.7753 16.3499C10.6238 16.4132 10.4843 16.502 10.3628 16.6124C10.249 16.7312 10.1598 16.8714 10.1003 17.0249C10.0342 17.1745 10 17.3363 10 17.4999C10 17.6634 10.0342 17.8252 10.1003 17.9748C10.1636 18.1263 10.2524 18.2658 10.3628 18.3873C10.4843 18.4977 10.6238 18.5865 10.7753 18.6498C10.9249 18.716 11.0867 18.7501 11.2503 18.7501C11.4139 18.7501 11.5756 18.716 11.7253 18.6498C11.8767 18.5865 12.0163 18.4977 12.1377 18.3873C12.2482 18.2658 12.3369 18.1263 12.4002 17.9748C12.4664 17.8252 12.5005 17.6634 12.5005 17.4999C12.5005 17.3363 12.4664 17.1745 12.4002 17.0249C12.3408 16.8714 12.2515 16.7312 12.1377 16.6124ZM33.7498 16.2499H16.2502C15.9187 16.2499 15.6007 16.3816 15.3663 16.616C15.1319 16.8504 15.0002 17.1683 15.0002 17.4999C15.0002 17.8314 15.1319 18.1493 15.3663 18.3837C15.6007 18.6181 15.9187 18.7498 16.2502 18.7498H33.7498C34.0813 18.7498 34.3993 18.6181 34.6337 18.3837C34.8681 18.1493 34.9998 17.8314 34.9998 17.4999C34.9998 17.1683 34.8681 16.8504 34.6337 16.616C34.3993 16.3816 34.0813 16.2499 33.7498 16.2499ZM12.1377 10.3625C12.0189 10.2487 11.8787 10.1595 11.7253 10.1C11.4976 10.0043 11.2467 9.97812 11.0043 10.0248C10.7618 10.0716 10.5386 10.189 10.3628 10.3625C10.2524 10.484 10.1636 10.6235 10.1003 10.775C10.0342 10.9246 10 11.0864 10 11.25C10 11.4136 10.0342 11.5753 10.1003 11.725C10.1636 11.8764 10.2524 12.016 10.3628 12.1375C10.4843 12.2479 10.6238 12.3367 10.7753 12.4C11.0029 12.4957 11.2538 12.5218 11.4963 12.4751C11.7388 12.4284 11.962 12.3109 12.1377 12.1375C12.2482 12.016 12.3369 11.8764 12.4002 11.725C12.4664 11.5753 12.5005 11.4136 12.5005 11.25C12.5005 11.0864 12.4664 10.9246 12.4002 10.775C12.3369 10.6235 12.2482 10.484 12.1377 10.3625ZM33.7498 22.4998H16.2502C15.9187 22.4998 15.6007 22.6315 15.3663 22.8659C15.1319 23.1003 15.0002 23.4182 15.0002 23.7497C15.0002 24.0812 15.1319 24.3992 15.3663 24.6336C15.6007 24.868 15.9187 24.9997 16.2502 24.9997H33.7498C34.0813 24.9997 34.3993 24.868 34.6337 24.6336C34.8681 24.3992 34.9998 24.0812 34.9998 23.7497C34.9998 23.4182 34.8681 23.1003 34.6337 22.8659C34.3993 22.6315 34.0813 22.4998 33.7498 22.4998Z" fill="black" fill-opacity="0.6"/>
</svg>
