<svg width="23" height="23" viewBox="0 0 23 23" fill="none" xmlns="http://www.w3.org/2000/svg">
<path fill-rule="evenodd" clip-rule="evenodd" d="M12.4583 2.87496C12.4583 2.34569 12.0293 1.91663 11.5 1.91663C10.9707 1.91663 10.5417 2.34569 10.5417 2.87496V3.59371H10.0075C7.87511 3.59371 6.11025 5.25164 5.97714 7.37984L5.76534 10.7661C5.68459 12.0571 5.25115 13.3013 4.51222 14.3631C3.84456 15.3224 4.43894 16.6474 5.59942 16.7866L8.86458 17.1784V18.2083C8.86458 19.6638 10.0445 20.8437 11.5 20.8437C12.9555 20.8437 14.1354 19.6638 14.1354 18.2083V17.1784L17.4006 16.7866C18.561 16.6474 19.1554 15.3224 18.4878 14.3631C17.7488 13.3013 17.3154 12.0571 17.2346 10.7661L17.0228 7.37984C16.8897 5.25164 15.1249 3.59371 12.9925 3.59371H12.4583V2.87496ZM10.0075 5.03121C8.63418 5.03121 7.49756 6.09896 7.41183 7.46957L7.20004 10.8558C7.10287 12.4094 6.58129 13.9065 5.69211 15.1842C5.64385 15.2535 5.68681 15.3493 5.77069 15.3594L9.35261 15.7892C10.7791 15.9604 12.2209 15.9604 13.6474 15.7892L17.2293 15.3594C17.3132 15.3493 17.3561 15.2535 17.3079 15.1842C16.4187 13.9065 15.8971 12.4094 15.7999 10.8558L15.5881 7.46957C15.5024 6.09896 14.3658 5.03121 12.9925 5.03121H10.0075ZM11.5 19.4062C10.8384 19.4062 10.3021 18.8699 10.3021 18.2083V17.4895H12.6979V18.2083C12.6979 18.8699 12.1616 19.4062 11.5 19.4062Z" fill="white"/>
</svg>
