<svg width="22" height="22" viewBox="0 0 22 22" fill="none" xmlns="http://www.w3.org/2000/svg">
<path fill-rule="evenodd" clip-rule="evenodd" d="M13.1863 14.1586C10.7569 16.1044 7.20075 15.9513 4.9487 13.6992C2.53233 11.2828 2.53233 7.36512 4.9487 4.94875C7.36507 2.53238 11.2828 2.53238 13.6991 4.94875C15.9512 7.2008 16.1043 10.7569 14.1586 13.1864L18.8846 17.9124C19.1531 18.1808 19.1531 18.6161 18.8846 18.8846C18.6161 19.1531 18.1808 19.1531 17.9123 18.8846L13.1863 14.1586ZM5.92097 12.7269C4.04157 10.8475 4.04157 7.80042 5.92097 5.92102C7.80037 4.04163 10.8475 4.04163 12.7269 5.92102C14.6049 7.79904 14.6063 10.8431 12.731 12.7228C12.7296 12.7241 12.7282 12.7255 12.7269 12.7269C12.7255 12.7283 12.7241 12.7297 12.7227 12.7311C10.843 14.6063 7.79899 14.6049 5.92097 12.7269Z" fill="white" stroke="white" stroke-width="0.5" stroke-linecap="round"/>
</svg>
