<svg xmlns="http://www.w3.org/2000/svg" xmlns:xlink="http://www.w3.org/1999/xlink" width="500" zoomAndPan="magnify" viewBox="0 0 375 374.999991" height="500" preserveAspectRatio="xMidYMid meet" version="1.0"><defs><g/><clipPath id="3ffc7033ad"><path d="M 0 114.84375 L 375 114.84375 L 375 260.34375 L 0 260.34375 Z M 0 114.84375 " clip-rule="nonzero"/></clipPath><clipPath id="bb9f0f8140"><path d="M 12.75 119.785156 L 362.25 119.785156 L 362.25 255.535156 L 12.75 255.535156 Z M 12.75 119.785156 " clip-rule="nonzero"/></clipPath><clipPath id="264566422d"><path d="M 48.871094 163 L 69 163 L 69 184 L 48.871094 184 Z M 48.871094 163 " clip-rule="nonzero"/></clipPath><clipPath id="2d2ff337e3"><path d="M 93 153.113281 L 114 153.113281 L 114 173 L 93 173 Z M 93 153.113281 " clip-rule="nonzero"/></clipPath><clipPath id="774a66e776"><path d="M 137 163 L 157.621094 163 L 157.621094 184 L 137 184 Z M 137 163 " clip-rule="nonzero"/></clipPath><clipPath id="0e170d83c9"><path d="M 61 169 L 146 169 L 146 222.113281 L 61 222.113281 Z M 61 169 " clip-rule="nonzero"/></clipPath></defs><g clip-path="url(#3ffc7033ad)"><path fill="#e4cb67" d="M 374.863281 187.59375 C 374.863281 197.414062 372.941406 206.941406 369.152344 215.914062 C 365.492188 224.578125 360.253906 232.355469 353.582031 239.035156 C 346.910156 245.71875 339.140625 250.960938 330.488281 254.628906 C 321.527344 258.421875 312.011719 260.34375 302.207031 260.34375 L 72.78125 260.34375 C 62.972656 260.34375 53.460938 258.421875 44.5 254.628906 C 35.847656 250.960938 28.078125 245.71875 21.40625 239.035156 C 14.734375 232.355469 9.496094 224.578125 5.835938 215.914062 C 2.046875 206.941406 0.125 197.414062 0.125 187.59375 C 0.125 177.773438 2.046875 168.246094 5.835938 159.273438 C 9.496094 150.609375 14.734375 142.828125 21.40625 136.148438 C 28.078125 129.46875 35.847656 124.222656 44.5 120.558594 C 53.460938 116.765625 62.972656 114.839844 72.78125 114.839844 L 302.207031 114.839844 C 312.011719 114.839844 321.527344 116.765625 330.488281 120.558594 C 339.140625 124.222656 346.910156 129.46875 353.582031 136.148438 C 360.253906 142.828125 365.492188 150.609375 369.152344 159.273438 C 372.941406 168.246094 374.863281 177.773438 374.863281 187.59375 Z M 374.863281 187.59375 " fill-opacity="1" fill-rule="nonzero"/></g><path fill="#f5aa1b" d="M 302.207031 257.398438 L 72.78125 257.398438 C 63.371094 257.398438 54.242188 255.554688 45.644531 251.910156 C 37.34375 248.398438 29.890625 243.363281 23.488281 236.953125 C 17.085938 230.542969 12.058594 223.078125 8.546875 214.765625 C 4.910156 206.15625 3.066406 197.015625 3.066406 187.59375 C 3.066406 178.171875 4.910156 169.03125 8.546875 160.421875 C 12.058594 152.109375 17.085938 144.644531 23.488281 138.234375 C 29.890625 131.824219 37.34375 126.792969 45.644531 123.277344 C 54.242188 119.636719 63.371094 117.789062 72.78125 117.789062 L 302.207031 117.789062 C 311.617188 117.789062 320.746094 119.632812 329.339844 123.277344 C 337.640625 126.789062 345.097656 131.824219 351.5 138.234375 C 357.902344 144.644531 362.929688 152.109375 366.441406 160.421875 C 370.074219 169.03125 371.921875 178.171875 371.921875 187.59375 C 371.921875 197.015625 370.078125 206.15625 366.441406 214.765625 C 362.929688 223.078125 357.902344 230.542969 351.5 236.953125 C 345.097656 243.363281 337.644531 248.394531 329.339844 251.910156 C 320.746094 255.550781 311.617188 257.398438 302.207031 257.398438 Z M 72.78125 119.125 C 35.078125 119.125 4.402344 149.839844 4.402344 187.59375 C 4.402344 225.347656 35.078125 256.0625 72.78125 256.0625 L 302.207031 256.0625 C 339.910156 256.0625 370.585938 225.347656 370.585938 187.59375 C 370.585938 149.839844 339.910156 119.125 302.207031 119.125 Z M 72.78125 119.125 " fill-opacity="1" fill-rule="nonzero"/><g clip-path="url(#bb9f0f8140)"><path fill="#ab0909" d="M 362.109375 187.660156 C 362.109375 196.820312 360.320312 205.710938 356.789062 214.082031 C 353.378906 222.164062 348.496094 229.421875 342.277344 235.65625 C 336.058594 241.886719 328.820312 246.78125 320.757812 250.199219 C 312.40625 253.742188 303.539062 255.535156 294.398438 255.535156 L 80.589844 255.535156 C 71.449219 255.535156 62.582031 253.742188 54.234375 250.199219 C 46.167969 246.78125 38.929688 241.886719 32.710938 235.65625 C 26.492188 229.421875 21.609375 222.164062 18.199219 214.082031 C 14.667969 205.710938 12.878906 196.820312 12.878906 187.660156 C 12.878906 178.496094 14.667969 169.605469 18.199219 161.238281 C 21.609375 153.152344 26.492188 145.894531 32.710938 139.664062 C 38.929688 133.429688 46.167969 128.535156 54.234375 125.117188 C 62.582031 121.578125 71.449219 119.78125 80.589844 119.78125 L 294.398438 119.78125 C 303.539062 119.78125 312.40625 121.578125 320.757812 125.117188 C 328.820312 128.535156 336.058594 133.429688 342.277344 139.664062 C 348.496094 145.894531 353.378906 153.152344 356.789062 161.238281 C 360.320312 169.609375 362.109375 178.5 362.109375 187.660156 Z M 362.109375 187.660156 " fill-opacity="1" fill-rule="nonzero"/></g><path fill="#ffde59" d="M 294.398438 252.785156 L 80.589844 252.785156 C 71.820312 252.785156 63.3125 251.066406 55.300781 247.667969 C 47.566406 244.386719 40.617188 239.691406 34.652344 233.710938 C 28.683594 227.730469 24 220.765625 20.726562 213.007812 C 17.339844 204.980469 15.621094 196.449219 15.621094 187.660156 C 15.621094 178.867188 17.339844 170.339844 20.726562 162.308594 C 24 154.554688 28.683594 147.589844 34.652344 141.609375 C 40.617188 135.628906 47.566406 130.933594 55.300781 127.652344 C 63.3125 124.253906 71.820312 122.53125 80.589844 122.53125 L 294.398438 122.53125 C 303.167969 122.53125 311.675781 124.253906 319.6875 127.652344 C 327.421875 130.929688 334.371094 135.628906 340.339844 141.609375 C 346.304688 147.589844 350.988281 154.554688 354.261719 162.308594 C 357.648438 170.339844 359.367188 178.867188 359.367188 187.660156 C 359.367188 196.449219 357.648438 204.980469 354.261719 213.007812 C 350.988281 220.765625 346.304688 227.730469 340.339844 233.710938 C 334.371094 239.691406 327.425781 244.386719 319.6875 247.667969 C 311.675781 251.0625 303.167969 252.785156 294.398438 252.785156 Z M 80.589844 123.777344 C 45.449219 123.777344 16.863281 152.4375 16.863281 187.660156 C 16.863281 222.882812 45.453125 251.539062 80.589844 251.539062 L 294.398438 251.539062 C 329.539062 251.539062 358.125 222.882812 358.125 187.660156 C 358.125 152.433594 329.535156 123.777344 294.398438 123.777344 Z M 80.589844 123.777344 " fill-opacity="1" fill-rule="nonzero"/><g fill="#ffffff" fill-opacity="1"><g transform="translate(169.723909, 220.377319)"><g><path d="M 65.015625 -62.3125 L 40.640625 0 L 24.46875 0 L 1.21875 -62.3125 L 18.6875 -62.3125 L 33.8125 -16.8125 L 48.953125 -62.21875 Z M 65.015625 -62.3125 "/></g></g></g><g fill="#ffffff" fill-opacity="1"><g transform="translate(235.960018, 220.377319)"><g><path d="M 6.640625 -62.3125 L 21.765625 -62.3125 L 21.765625 0 L 6.640625 0 Z M 6.640625 -62.3125 "/></g></g></g><g fill="#ffffff" fill-opacity="1"><g transform="translate(264.36027, 220.377319)"><g><path d="M 21.765625 0 L 6.640625 0 L 6.640625 -62.3125 L 34.65625 -62.3125 C 42.132812 -62.3125 47.910156 -60.628906 51.984375 -57.265625 C 56.066406 -53.898438 58.109375 -48.828125 58.109375 -42.046875 C 58.109375 -35.128906 56.035156 -29.800781 51.890625 -26.0625 C 47.753906 -22.320312 42.007812 -20.453125 34.65625 -20.453125 L 21.765625 -20.453125 Z M 32.796875 -32.140625 C 35.847656 -32.140625 38.101562 -32.929688 39.5625 -34.515625 C 41.03125 -36.109375 41.765625 -38.273438 41.765625 -41.015625 C 41.765625 -47.367188 38.773438 -50.546875 32.796875 -50.546875 L 21.765625 -50.546875 L 21.765625 -32.140625 Z M 32.796875 -32.140625 "/></g></g></g><path fill="#ffffff" d="M 67.453125 173.296875 C 67.453125 168.441406 63.539062 164.507812 58.707031 164.507812 C 53.878906 164.507812 49.964844 168.441406 49.964844 173.296875 C 49.964844 178.148438 53.878906 182.085938 58.707031 182.085938 C 63.539062 182.085938 67.453125 178.148438 67.453125 173.296875 " fill-opacity="1" fill-rule="nonzero"/><path fill="#ffffff" d="M 103.289062 171.765625 C 108.117188 171.765625 112.03125 167.832031 112.03125 162.976562 C 112.03125 158.121094 108.117188 154.1875 103.289062 154.1875 C 98.460938 154.1875 94.542969 158.121094 94.542969 162.976562 C 94.542969 167.832031 98.460938 171.765625 103.289062 171.765625 " fill-opacity="1" fill-rule="nonzero"/><path fill="#ffffff" d="M 147.773438 164.503906 C 142.945312 164.503906 139.027344 168.441406 139.027344 173.292969 C 139.027344 178.148438 142.945312 182.082031 147.773438 182.082031 C 152.601562 182.082031 156.515625 178.148438 156.515625 173.292969 C 156.515625 168.441406 152.601562 164.503906 147.773438 164.503906 " fill-opacity="1" fill-rule="nonzero"/><g clip-path="url(#264566422d)"><path fill="#f5aa1b" d="M 58.707031 165.578125 C 54.476562 165.578125 51.03125 169.039062 51.03125 173.296875 C 51.03125 177.550781 54.476562 181.011719 58.707031 181.011719 C 62.941406 181.011719 66.386719 177.550781 66.386719 173.296875 C 66.386719 169.039062 62.941406 165.578125 58.707031 165.578125 Z M 58.707031 183.15625 C 53.300781 183.15625 48.898438 178.730469 48.898438 173.296875 C 48.898438 167.859375 53.300781 163.433594 58.707031 163.433594 C 64.117188 163.433594 68.519531 167.859375 68.519531 173.296875 C 68.519531 178.730469 64.117188 183.15625 58.707031 183.15625 " fill-opacity="1" fill-rule="nonzero"/></g><g clip-path="url(#2d2ff337e3)"><path fill="#f5aa1b" d="M 103.289062 155.257812 C 99.054688 155.257812 95.609375 158.722656 95.609375 162.976562 C 95.609375 167.234375 99.054688 170.695312 103.289062 170.695312 C 107.523438 170.695312 110.96875 167.234375 110.96875 162.976562 C 110.96875 158.722656 107.523438 155.257812 103.289062 155.257812 Z M 103.289062 172.835938 C 97.878906 172.835938 93.480469 168.414062 93.480469 162.976562 C 93.480469 157.539062 97.878906 153.117188 103.289062 153.117188 C 108.699219 153.117188 113.097656 157.539062 113.097656 162.976562 C 113.097656 168.414062 108.699219 172.835938 103.289062 172.835938 " fill-opacity="1" fill-rule="nonzero"/></g><g clip-path="url(#774a66e776)"><path fill="#f5aa1b" d="M 147.773438 165.574219 C 143.539062 165.574219 140.09375 169.039062 140.09375 173.292969 C 140.09375 177.550781 143.539062 181.011719 147.773438 181.011719 C 152.007812 181.011719 155.453125 177.550781 155.453125 173.292969 C 155.453125 169.039062 152.007812 165.574219 147.773438 165.574219 Z M 147.773438 183.152344 C 142.363281 183.152344 137.964844 178.730469 137.964844 173.292969 C 137.964844 167.855469 142.363281 163.433594 147.773438 163.433594 C 153.179688 163.433594 157.582031 167.855469 157.582031 173.292969 C 157.582031 178.730469 153.179688 183.152344 147.773438 183.152344 " fill-opacity="1" fill-rule="nonzero"/></g><path fill="#ffffff" d="M 139.808594 176.914062 L 118.710938 188.488281 L 117.359375 188.488281 L 108.316406 170.652344 C 106.804688 171.429688 105.097656 171.871094 103.289062 171.871094 C 101.480469 171.871094 99.769531 171.429688 98.261719 170.652344 L 89.214844 188.488281 L 87.867188 188.488281 L 66.769531 176.914062 C 65.789062 178.785156 64.292969 180.339844 62.472656 181.390625 L 77.214844 207.78125 L 77.214844 220.34375 C 77.214844 220.730469 77.527344 221.046875 77.914062 221.046875 L 128.664062 221.046875 C 129.050781 221.046875 129.363281 220.730469 129.363281 220.34375 L 129.363281 207.78125 L 144.105469 181.390625 C 142.285156 180.339844 140.789062 178.785156 139.808594 176.914062 " fill-opacity="1" fill-rule="nonzero"/><g clip-path="url(#0e170d83c9)"><path fill="#f5aa1b" d="M 78.28125 219.972656 L 128.296875 219.972656 L 128.296875 207.78125 C 128.296875 207.59375 128.34375 207.414062 128.433594 207.253906 L 142.679688 181.75 C 141.382812 180.839844 140.273438 179.6875 139.414062 178.351562 L 119.222656 189.429688 C 119.066406 189.515625 118.890625 189.5625 118.710938 189.5625 L 117.359375 189.5625 C 116.960938 189.5625 116.59375 189.335938 116.410156 188.976562 L 107.832031 172.054688 C 106.390625 172.644531 104.863281 172.941406 103.289062 172.941406 C 101.710938 172.941406 100.1875 172.644531 98.746094 172.054688 L 90.164062 188.976562 C 89.984375 189.335938 89.617188 189.5625 89.214844 189.5625 L 87.867188 189.5625 C 87.6875 189.5625 87.511719 189.515625 87.355469 189.429688 L 67.164062 178.351562 C 66.304688 179.6875 65.195312 180.839844 63.894531 181.75 L 78.144531 207.253906 C 78.234375 207.414062 78.28125 207.59375 78.28125 207.78125 Z M 128.664062 222.117188 L 77.914062 222.117188 C 76.941406 222.117188 76.148438 221.320312 76.148438 220.34375 L 76.148438 208.058594 L 61.542969 181.917969 C 61.257812 181.402344 61.433594 180.757812 61.941406 180.464844 C 63.59375 179.507812 64.9375 178.105469 65.824219 176.414062 C 65.957031 176.160156 66.1875 175.96875 66.460938 175.886719 C 66.734375 175.804688 67.027344 175.835938 67.277344 175.972656 L 88.136719 187.417969 L 88.5625 187.417969 L 97.3125 170.167969 C 97.441406 169.914062 97.664062 169.722656 97.933594 169.636719 C 98.203125 169.546875 98.496094 169.570312 98.746094 169.699219 C 100.167969 170.429688 101.695312 170.800781 103.289062 170.800781 C 104.882812 170.800781 106.410156 170.429688 107.832031 169.699219 C 108.082031 169.570312 108.375 169.546875 108.644531 169.636719 C 108.914062 169.722656 109.136719 169.914062 109.265625 170.167969 L 118.015625 187.417969 L 118.4375 187.417969 L 139.296875 175.972656 C 139.550781 175.835938 139.84375 175.804688 140.117188 175.886719 C 140.390625 175.96875 140.617188 176.160156 140.75 176.414062 C 141.640625 178.105469 142.984375 179.507812 144.636719 180.464844 C 145.144531 180.757812 145.320312 181.402344 145.035156 181.917969 L 130.429688 208.058594 L 130.429688 220.34375 C 130.429688 221.320312 129.636719 222.117188 128.664062 222.117188 " fill-opacity="1" fill-rule="nonzero"/></g><path fill="#f5aa1b" d="M 90.660156 212.628906 C 90.515625 212.511719 90.414062 212.363281 90.359375 212.183594 L 86.183594 198.886719 L 86.144531 198.699219 C 86.144531 198.589844 86.1875 198.488281 86.277344 198.398438 C 86.367188 198.308594 86.472656 198.265625 86.597656 198.265625 L 89.304688 198.265625 C 89.511719 198.265625 89.679688 198.324219 89.8125 198.441406 C 89.941406 198.558594 90.027344 198.6875 90.070312 198.824219 L 92.882812 208.214844 L 95.710938 198.824219 C 95.753906 198.671875 95.839844 198.542969 95.972656 198.429688 C 96.101562 198.320312 96.269531 198.265625 96.476562 198.265625 L 99.183594 198.265625 C 99.308594 198.265625 99.414062 198.308594 99.496094 198.398438 C 99.578125 198.488281 99.617188 198.589844 99.617188 198.699219 C 99.617188 198.769531 99.613281 198.832031 99.597656 198.886719 L 95.402344 212.183594 C 95.359375 212.363281 95.269531 212.511719 95.125 212.628906 C 94.980469 212.746094 94.789062 212.804688 94.554688 212.804688 L 91.226562 212.804688 C 90.992188 212.804688 90.804688 212.746094 90.660156 212.628906 " fill-opacity="1" fill-rule="nonzero"/><path fill="#f5aa1b" d="M 101.65625 212.648438 C 101.550781 212.546875 101.5 212.425781 101.5 212.285156 L 101.5 198.785156 C 101.5 198.632812 101.550781 198.507812 101.65625 198.410156 C 101.757812 198.3125 101.878906 198.265625 102.015625 198.265625 L 104.972656 198.265625 C 105.121094 198.265625 105.246094 198.3125 105.34375 198.410156 C 105.4375 198.507812 105.488281 198.632812 105.488281 198.785156 L 105.488281 212.285156 C 105.488281 212.425781 105.4375 212.546875 105.34375 212.648438 C 105.246094 212.753906 105.121094 212.804688 104.972656 212.804688 L 102.015625 212.804688 C 101.878906 212.804688 101.757812 212.753906 101.65625 212.648438 " fill-opacity="1" fill-rule="nonzero"/><path fill="#f5aa1b" d="M 114.5625 204.828125 C 115.125 204.828125 115.570312 204.679688 115.894531 204.382812 C 116.21875 204.085938 116.382812 203.644531 116.382812 203.0625 C 116.382812 202.523438 116.230469 202.085938 115.9375 201.753906 C 115.640625 201.421875 115.183594 201.253906 114.5625 201.253906 L 112.246094 201.253906 L 112.246094 204.828125 Z M 108.453125 212.648438 C 108.351562 212.546875 108.296875 212.425781 108.296875 212.285156 L 108.296875 198.804688 C 108.296875 198.652344 108.347656 198.523438 108.445312 198.417969 C 108.539062 198.316406 108.664062 198.265625 108.816406 198.265625 L 114.664062 198.265625 C 116.457031 198.265625 117.859375 198.671875 118.882812 199.488281 C 119.902344 200.308594 120.410156 201.503906 120.410156 203.082031 C 120.410156 204.664062 119.902344 205.84375 118.882812 206.625 C 117.859375 207.40625 116.457031 207.800781 114.664062 207.800781 L 112.308594 207.800781 L 112.308594 212.285156 C 112.308594 212.425781 112.261719 212.546875 112.164062 212.648438 C 112.066406 212.753906 111.945312 212.804688 111.792969 212.804688 L 108.816406 212.804688 C 108.679688 212.804688 108.558594 212.753906 108.453125 212.648438 " fill-opacity="1" fill-rule="nonzero"/></svg>